<mxfile host="app.diagrams.net" agent="Mozilla/5.0 (Windows NT 10.0; Win64; x64) AppleWebKit/537.36 (KHTML, like Gecko) Chrome/135.0.0.0 Safari/537.36" version="26.2.14">
  <diagram id="review_management_function_diagram" name="评价管理功能图">
    <mxGraphModel dx="1737" dy="878" grid="1" gridSize="10" guides="1" tooltips="1" connect="1" arrows="1" fold="1" page="1" pageScale="1" pageWidth="2339" pageHeight="1654" math="0" shadow="0">
      <root>
        <mxCell id="0" />
        <mxCell id="1" parent="0" />
        <!-- User Role and Functions -->
        <mxCell id="role-user" value="用户 (User)" style="rounded=1;whiteSpace=wrap;html=1;fontSize=14;fontStyle=1;labelBackgroundColor=none;" parent="1" vertex="1">
          <mxGeometry x="100" y="250" width="180" height="60" as="geometry" />
        </mxCell>
        <mxCell id="func-user-view" value="查看评价" style="rounded=1;whiteSpace=wrap;html=1;fontSize=12;labelBackgroundColor=none;" parent="1" vertex="1">
          <mxGeometry x="350" y="150" width="140" height="50" as="geometry" />
        </mxCell>
        <mxCell id="func-user-operate" value="评价操作" style="rounded=1;whiteSpace=wrap;html=1;fontSize=12;labelBackgroundColor=none;" parent="1" vertex="1">
          <mxGeometry x="350" y="350" width="140" height="50" as="geometry" />
        </mxCell>
        <mxCell id="uf-view-mine" value="查看我的评价&#xa;(GET /user)" style="rounded=0;whiteSpace=wrap;html=1;fontSize=11;labelBackgroundColor=none;" parent="1" vertex="1">
          <mxGeometry x="550" y="90" width="150" height="50" as="geometry" />
        </mxCell>
        <mxCell id="uf-view-homestay" value="查看房源评价&#xa;(GET /homestay/{id})" style="rounded=0;whiteSpace=wrap;html=1;fontSize=11;labelBackgroundColor=none;" parent="1" vertex="1">
          <mxGeometry x="550" y="150" width="150" height="50" as="geometry" />
        </mxCell>
        <mxCell id="uf-view-homestay-stats" value="查看房源评价统计&#xa;(GET /homestay/{id}/stats)" style="rounded=0;whiteSpace=wrap;html=1;fontSize=11;labelBackgroundColor=none;" parent="1" vertex="1">
          <mxGeometry x="550" y="210" width="150" height="50" as="geometry" />
        </mxCell>
        <mxCell id="uf-submit" value="提交评价&#xa;(POST /reviews)" style="rounded=0;whiteSpace=wrap;html=1;fontSize=11;labelBackgroundColor=none;" parent="1" vertex="1">
          <mxGeometry x="550" y="310" width="150" height="50" as="geometry" />
        </mxCell>
        <mxCell id="uf-update" value="修改评价&#xa;(PUT /{id})" style="rounded=0;whiteSpace=wrap;html=1;fontSize=11;labelBackgroundColor=none;" parent="1" vertex="1">
          <mxGeometry x="550" y="370" width="150" height="50" as="geometry" />
        </mxCell>
        <mxCell id="uf-delete" value="删除评价&#xa;(DELETE /{id})" style="rounded=0;whiteSpace=wrap;html=1;fontSize=11;labelBackgroundColor=none;" parent="1" vertex="1">
          <mxGeometry x="550" y="430" width="150" height="50" as="geometry" />
        </mxCell>
        <mxCell id="conn-user-view" value="" style="edgeStyle=orthogonalEdgeStyle;rounded=0;orthogonalLoop=1;jettySize=auto;html=1;entryX=0;entryY=0.5;entryDx=0;entryDy=0;" parent="1" source="role-user" target="func-user-view" edge="1">
          <mxGeometry relative="1" as="geometry">
            <Array as="points">
              <mxPoint x="290" y="280" />
              <mxPoint x="290" y="175" />
            </Array>
          </mxGeometry>
        </mxCell>
        <mxCell id="conn-user-operate" value="" style="edgeStyle=orthogonalEdgeStyle;rounded=0;orthogonalLoop=1;jettySize=auto;html=1;entryX=0;entryY=0.5;entryDx=0;entryDy=0;" parent="1" source="role-user" target="func-user-operate" edge="1">
           <mxGeometry relative="1" as="geometry">
            <Array as="points">
              <mxPoint x="290" y="280" />
              <mxPoint x="290" y="375" />
            </Array>
          </mxGeometry>
        </mxCell>
        <mxCell id="conn-uv-mine" value="" style="edgeStyle=orthogonalEdgeStyle;rounded=0;orthogonalLoop=1;jettySize=auto;html=1;entryX=0;entryY=0.5;entryDx=0;entryDy=0;" parent="1" source="func-user-view" target="uf-view-mine" edge="1">
          <mxGeometry relative="1" as="geometry" />
        </mxCell>
        <mxCell id="conn-uv-homestay" value="" style="edgeStyle=orthogonalEdgeStyle;rounded=0;orthogonalLoop=1;jettySize=auto;html=1;entryX=0;entryY=0.5;entryDx=0;entryDy=0;" parent="1" source="func-user-view" target="uf-view-homestay" edge="1">
          <mxGeometry relative="1" as="geometry" />
        </mxCell>
        <mxCell id="conn-uv-homestay-stats" value="" style="edgeStyle=orthogonalEdgeStyle;rounded=0;orthogonalLoop=1;jettySize=auto;html=1;entryX=0;entryY=0.5;entryDx=0;entryDy=0;" parent="1" source="func-user-view" target="uf-view-homestay-stats" edge="1">
          <mxGeometry relative="1" as="geometry" />
        </mxCell>
        <mxCell id="conn-uo-submit" value="" style="edgeStyle=orthogonalEdgeStyle;rounded=0;orthogonalLoop=1;jettySize=auto;html=1;entryX=0;entryY=0.5;entryDx=0;entryDy=0;" parent="1" source="func-user-operate" target="uf-submit" edge="1">
          <mxGeometry relative="1" as="geometry" />
        </mxCell>
        <mxCell id="conn-uo-update" value="" style="edgeStyle=orthogonalEdgeStyle;rounded=0;orthogonalLoop=1;jettySize=auto;html=1;entryX=0;entryY=0.5;entryDx=0;entryDy=0;" parent="1" source="func-user-operate" target="uf-update" edge="1">
          <mxGeometry relative="1" as="geometry" />
        </mxCell>
        <mxCell id="conn-uo-delete" value="" style="edgeStyle=orthogonalEdgeStyle;rounded=0;orthogonalLoop=1;jettySize=auto;html=1;entryX=0;entryY=0.5;entryDx=0;entryDy=0;" parent="1" source="func-user-operate" target="uf-delete" edge="1">
          <mxGeometry relative="1" as="geometry" />
        </mxCell>

        <!-- Host Role and Functions -->
        <mxCell id="role-host" value="房东 (Host)" style="rounded=1;whiteSpace=wrap;html=1;fontSize=14;fontStyle=1;labelBackgroundColor=none;" parent="1" vertex="1">
          <mxGeometry x="100" y="650" width="180" height="60" as="geometry" />
        </mxCell>
        <mxCell id="func-host-manage" value="评价管理 (房东)" style="rounded=1;whiteSpace=wrap;html=1;fontSize=12;labelBackgroundColor=none;" parent="1" vertex="1">
          <mxGeometry x="350" y="580" width="140" height="50" as="geometry" />
        </mxCell>
        <mxCell id="func-host-reply" value="回复管理" style="rounded=1;whiteSpace=wrap;html=1;fontSize=12;labelBackgroundColor=none;" parent="1" vertex="1">
          <mxGeometry x="350" y="720" width="140" height="50" as="geometry" />
        </mxCell>
         <mxCell id="hf-view-list" value="查看名下房源评价&#xa;(GET /host)" style="rounded=0;whiteSpace=wrap;html=1;fontSize=11;labelBackgroundColor=none;" parent="1" vertex="1">
          <mxGeometry x="550" y="550" width="150" height="50" as="geometry" />
        </mxCell>
        <mxCell id="hf-view-stats" value="查看名下评价统计&#xa;(GET /host/stats)" style="rounded=0;whiteSpace=wrap;html=1;fontSize=11;labelBackgroundColor=none;" parent="1" vertex="1">
          <mxGeometry x="550" y="610" width="150" height="50" as="geometry" />
        </mxCell>
        <mxCell id="hf-reply" value="回复评价&#xa;(POST /{id}/response)" style="rounded=0;whiteSpace=wrap;html=1;fontSize=11;labelBackgroundColor=none;" parent="1" vertex="1">
          <mxGeometry x="550" y="690" width="150" height="50" as="geometry" />
        </mxCell>
        <mxCell id="hf-delete-reply" value="删除评价回复&#xa;(DELETE /{id}/response)" style="rounded=0;whiteSpace=wrap;html=1;fontSize=11;labelBackgroundColor=none;" parent="1" vertex="1">
          <mxGeometry x="550" y="750" width="150" height="50" as="geometry" />
        </mxCell>
         <mxCell id="conn-host-manage" value="" style="edgeStyle=orthogonalEdgeStyle;rounded=0;orthogonalLoop=1;jettySize=auto;html=1;entryX=0;entryY=0.5;entryDx=0;entryDy=0;" parent="1" source="role-host" target="func-host-manage" edge="1">
           <mxGeometry relative="1" as="geometry">
            <Array as="points">
              <mxPoint x="290" y="680" />
              <mxPoint x="290" y="605" />
            </Array>
          </mxGeometry>
        </mxCell>
        <mxCell id="conn-host-reply" value="" style="edgeStyle=orthogonalEdgeStyle;rounded=0;orthogonalLoop=1;jettySize=auto;html=1;entryX=0;entryY=0.5;entryDx=0;entryDy=0;" parent="1" source="role-host" target="func-host-reply" edge="1">
           <mxGeometry relative="1" as="geometry">
            <Array as="points">
              <mxPoint x="290" y="680" />
              <mxPoint x="290" y="745" />
            </Array>
          </mxGeometry>
        </mxCell>
        <mxCell id="conn-hm-view-list" value="" style="edgeStyle=orthogonalEdgeStyle;rounded=0;orthogonalLoop=1;jettySize=auto;html=1;entryX=0;entryY=0.5;entryDx=0;entryDy=0;" parent="1" source="func-host-manage" target="hf-view-list" edge="1">
          <mxGeometry relative="1" as="geometry" />
        </mxCell>
        <mxCell id="conn-hm-view-stats" value="" style="edgeStyle=orthogonalEdgeStyle;rounded=0;orthogonalLoop=1;jettySize=auto;html=1;entryX=0;entryY=0.5;entryDx=0;entryDy=0;" parent="1" source="func-host-manage" target="hf-view-stats" edge="1">
          <mxGeometry relative="1" as="geometry" />
        </mxCell>
        <mxCell id="conn-hr-reply" value="" style="edgeStyle=orthogonalEdgeStyle;rounded=0;orthogonalLoop=1;jettySize=auto;html=1;entryX=0;entryY=0.5;entryDx=0;entryDy=0;" parent="1" source="func-host-reply" target="hf-reply" edge="1">
          <mxGeometry relative="1" as="geometry" />
        </mxCell>
        <mxCell id="conn-hr-delete-reply" value="" style="edgeStyle=orthogonalEdgeStyle;rounded=0;orthogonalLoop=1;jettySize=auto;html=1;entryX=0;entryY=0.5;entryDx=0;entryDy=0;" parent="1" source="func-host-reply" target="hf-delete-reply" edge="1">
          <mxGeometry relative="1" as="geometry" />
        </mxCell>
        <mxCell id="note-host-user-func" value="(房东也具有用户的评价操作功能)" style="text;html=1;align=center;verticalAlign=middle;resizable=0;points=[];autosize=1;strokeColor=none;fillColor=none;fontSize=10;fontStyle=4;" vertex="1" parent="1">
            <mxGeometry x="50" y="720" width="180" height="30" as="geometry"/>
        </mxCell>

        <!-- Admin Role and Functions -->
        <mxCell id="role-admin" value="管理员 (Admin)" style="rounded=1;whiteSpace=wrap;html=1;fontSize=14;fontStyle=1;labelBackgroundColor=none;" parent="1" vertex="1">
          <mxGeometry x="900" y="450" width="180" height="60" as="geometry" />
        </mxCell>
        <mxCell id="func-admin-manage" value="评价管理 (管理员)" style="rounded=1;whiteSpace=wrap;html=1;fontSize=12;labelBackgroundColor=none;" parent="1" vertex="1">
          <mxGeometry x="1150" y="455" width="140" height="50" as="geometry" />
        </mxCell>
        <mxCell id="af-view-all" value="查看所有评价&#xa;(GET /admin)" style="rounded=0;whiteSpace=wrap;html=1;fontSize=11;labelBackgroundColor=none;" parent="1" vertex="1">
          <mxGeometry x="1350" y="390" width="150" height="50" as="geometry" />
        </mxCell>
        <mxCell id="af-delete-any" value="删除任意评价&#xa;(DELETE /{id})" style="rounded=0;whiteSpace=wrap;html=1;fontSize=11;labelBackgroundColor=none;" parent="1" vertex="1">
          <mxGeometry x="1350" y="450" width="150" height="50" as="geometry" />
        </mxCell>
        <mxCell id="af-set-visibility" value="设置评价可见性&#xa;(PATCH /{id}/visibility)" style="rounded=0;whiteSpace=wrap;html=1;fontSize=11;labelBackgroundColor=none;" parent="1" vertex="1">
          <mxGeometry x="1350" y="510" width="150" height="50" as="geometry" />
        </mxCell>
        <mxCell id="conn-admin-manage" value="" style="edgeStyle=orthogonalEdgeStyle;rounded=0;orthogonalLoop=1;jettySize=auto;html=1;entryX=0;entryY=0.5;entryDx=0;entryDy=0;" parent="1" source="role-admin" target="func-admin-manage" edge="1">
          <mxGeometry relative="1" as="geometry" />
        </mxCell>
         <mxCell id="conn-am-view-all" value="" style="edgeStyle=orthogonalEdgeStyle;rounded=0;orthogonalLoop=1;jettySize=auto;html=1;entryX=0;entryY=0.5;entryDx=0;entryDy=0;" parent="1" source="func-admin-manage" target="af-view-all" edge="1">
          <mxGeometry relative="1" as="geometry" />
        </mxCell>
        <mxCell id="conn-am-delete-any" value="" style="edgeStyle=orthogonalEdgeStyle;rounded=0;orthogonalLoop=1;jettySize=auto;html=1;entryX=0;entryY=0.5;entryDx=0;entryDy=0;" parent="1" source="func-admin-manage" target="af-delete-any" edge="1">
          <mxGeometry relative="1" as="geometry" />
        </mxCell>
        <mxCell id="conn-am-set-visibility" value="" style="edgeStyle=orthogonalEdgeStyle;rounded=0;orthogonalLoop=1;jettySize=auto;html=1;entryX=0;entryY=0.5;entryDx=0;entryDy=0;" parent="1" source="func-admin-manage" target="af-set-visibility" edge="1">
          <mxGeometry relative="1" as="geometry" />
        </mxCell>
      </root>
    </mxGraphModel>
  </diagram>
</mxfile> 